<?xml version="1.0" encoding="UTF-8" standalone="no"?><svg xmlns="http://www.w3.org/2000/svg" xmlns:xlink="http://www.w3.org/1999/xlink" contentStyleType="text/css" height="165px" preserveAspectRatio="none" style="width:231px;height:165px;background:#FFFFFF;" version="1.1" viewBox="0 0 231 165" width="231px" zoomAndPan="magnify"><defs/><g><!--MD5=[770389ab9df153645bc6ef28055eb2b5]
entity A--><g id="elem_A"><rect fill="#F1F1F1" height="46.4883" rx="2.5" ry="2.5" style="stroke:#181818;stroke-width:0.5;" width="50" x="7" y="7"/><rect fill="#F1F1F1" height="10" style="stroke:#181818;stroke-width:0.5;" width="15" x="37" y="12"/><rect fill="#F1F1F1" height="2" style="stroke:#181818;stroke-width:0.5;" width="4" x="35" y="14"/><rect fill="#F1F1F1" height="2" style="stroke:#181818;stroke-width:0.5;" width="4" x="35" y="18"/><text fill="#000000" font-family="sans-serif" font-size="14" lengthAdjust="spacing" textLength="10" x="22" y="40.5352">A</text></g><!--MD5=[b2d39259b6aeabc16b394deeb0238426]
entity B--><g id="elem_B"><rect fill="#F1F1F1" height="46.4883" rx="2.5" ry="2.5" style="stroke:#181818;stroke-width:0.5;" width="48" x="92" y="7"/><rect fill="#F1F1F1" height="10" style="stroke:#181818;stroke-width:0.5;" width="15" x="120" y="12"/><rect fill="#F1F1F1" height="2" style="stroke:#181818;stroke-width:0.5;" width="4" x="118" y="14"/><rect fill="#F1F1F1" height="2" style="stroke:#181818;stroke-width:0.5;" width="4" x="118" y="18"/><text fill="#000000" font-family="sans-serif" font-size="14" lengthAdjust="spacing" textLength="8" x="107" y="40.5352">B</text></g><!--MD5=[16fab723be418f7eaf2ea4bd895a8e51]
entity C--><g id="elem_C"><rect fill="#F1F1F1" height="46.4883" rx="2.5" ry="2.5" style="stroke:#181818;stroke-width:0.5;" width="50" x="175" y="7"/><rect fill="#F1F1F1" height="10" style="stroke:#181818;stroke-width:0.5;" width="15" x="205" y="12"/><rect fill="#F1F1F1" height="2" style="stroke:#181818;stroke-width:0.5;" width="4" x="203" y="14"/><rect fill="#F1F1F1" height="2" style="stroke:#181818;stroke-width:0.5;" width="4" x="203" y="18"/><text fill="#000000" font-family="sans-serif" font-size="14" lengthAdjust="spacing" textLength="10" x="190" y="40.5352">C</text></g><!--MD5=[118f42602524ad482f02b27ef22fc383]
entity D--><g id="elem_D"><rect fill="#F1F1F1" height="46.4883" rx="2.5" ry="2.5" style="stroke:#181818;stroke-width:0.5;" width="50" x="175" y="113"/><rect fill="#F1F1F1" height="10" style="stroke:#181818;stroke-width:0.5;" width="15" x="205" y="118"/><rect fill="#F1F1F1" height="2" style="stroke:#181818;stroke-width:0.5;" width="4" x="203" y="120"/><rect fill="#F1F1F1" height="2" style="stroke:#181818;stroke-width:0.5;" width="4" x="203" y="124"/><text fill="#000000" font-family="sans-serif" font-size="14" lengthAdjust="spacing" textLength="10" x="190" y="146.5352">D</text></g><!--MD5=[5e2eec62a50b26b6b0db6c12e4ee289c]
link A to B--><g id="link_A_B"><path d="M57.27,30 C67.03,30 76.8,30 86.57,30 " fill="none" id="A-to-B" style="stroke:#181818;stroke-width:1.0;"/><polygon fill="#181818" points="91.68,30,82.68,26,86.68,30,82.68,34,91.68,30" style="stroke:#181818;stroke-width:1.0;"/></g><!--MD5=[cd25d8247324207f828a4db9f58ed69d]
link B to C--><g id="link_B_C"><path d="M140.28,30 C150.08,30 159.88,30 169.68,30 " fill="none" id="B-to-C" style="stroke:#181818;stroke-width:1.0;stroke-dasharray:7.0,7.0;"/><polygon fill="#181818" points="174.81,30,165.81,26,169.81,30,165.81,34,174.81,30" style="stroke:#181818;stroke-width:1.0;"/></g><!--MD5=[95ca888c4bb7ed1df160562281720a5c]
link C to D--><g id="link_C_D"><path d="M200,53.06 C200,69.05 200,90.78 200,107.84 " fill="none" id="C-to-D" style="stroke:#181818;stroke-width:1.0;"/><polygon fill="#181818" points="200,112.98,204,103.98,200,107.98,196,103.98,200,112.98" style="stroke:#181818;stroke-width:1.0;"/></g><!--MD5=[40d56587387d96e4bf75aecbf6adc534]
@startuml
[A] -> [B]
[B] .> [C]
[C] - -> [D]
@enduml

PlantUML version 1.2022.8(Sun Sep 25 17:00:33 SGT 2022)
(GPL source distribution)
Java Runtime: OpenJDK Runtime Environment
JVM: OpenJDK 64-Bit Server VM
Default Encoding: UTF-8
Language: en
Country: SG
--></g></svg>